{"title":"Mr. Destiny (1990) - DVDRip - MP3 - ENG","uid":4387866,"size":734049417,"categoryP":"video","categoryS":"movies","magnet":"?xt=urn:btih:b29f67bea38cd98d35001d96f5494bd7f483c71a&amp;dn=Mr.+Destiny+%281990%29+-+DVDRip+-+MP3+-+ENG&amp;tr=udp%3A%2F%2Ftracker.openbittorrent.com%3A80&amp;tr=udp%3A%2F%2Fopen.demonii.com%3A1337&amp;tr=udp%3A%2F%2Ftracker.coppersurfer.tk%3A6969&amp;tr=udp%3A%2F%2Fexodus.desync.com%3A6969","seeders":2,"leechers":1,"uploader":"206andy206","files":-1,"time":1221006921,"description":"IMDB: http://www.imdb.com/title/tt0100201/\nUser Rating: 5.9/10 (4,054 votes)\nRelease Date: 12 October 1990 (USA) more\nGenre: Fantasy | Comedy more\nTagline: Would you give up everything you have... for everything you've ever wanted?\n\nPlot:\nLarry Burrows is unhappy and feels powerless over his life. He believes his entire life could have turned out differently had he not missed that shot in a baseball game when was a kid. One night he meets this mysterious man, who could change his fate by offering him that alternative life he always dreamed of. But as Burrows embarks on this journey of self discovery he realises that even this new life has its problems and drawbacks..\n\nCast:\n\nJames Belushi\t... \tLarry Joseph Burrows\nLinda Hamilton\t... \tEllen Jane Burrows / Robertson\nMichael Caine\t... \tMike / Mr. Destiny\nJon Lovitz\t... \tClip Metzler\nHart Bochner\t... \tNiles Pender\nBill McCutcheon\t... \tLeo Hansen\nRene Russo\t... \tCindy Jo Bumpers / Burrows\nJay O. Sanders\t... \tJackie Earle 'Cement Head' Bumpers\nMaury Chaykin\t... \tGuzelman\nPat Corley\t... \tHarry Burrows\nDouglas Seale\t... \tBoswell\nCourteney Cox\t... \tJewel Jagger\n\n\nGeneral\nComplete name                    : Mr Destiny (1990) - DVDRip - MP3 - ENG.avi\nFormat                           : AVI\nSource                           : NTSC DVD\nFile size                        : 700 MiB\nDuration                         : 1h 50mn\nOveral bit rate                  : 886 Kbps\nIAS1                             : English\n\nVideo\nFormat                           : MPEG-4 Visual\nCodec ID                         : XVID\nDuration                         : 1h 50mn\nBit rate                         : 767 Kbps\nWidth                            : 608 pixels\nHeight                           : 336 pixels\nDisplay aspect ratio             : 16/9\nFrame rate                       : 23.976 fps\nResolution                       : 8 bits\nColorimetry                      : 4:2:0\nScan type                        : Progressive\nBits/(Pixel*Frame)               : 0.157\nStream size                      : 606 MiB (87%)\n\nAudio\nFormat                           : MPEG Audio\nFormat version                   : Version 1\nFormat profile                   : Layer 3\nCodec ID/Hint                    : MP3\nDuration                         : 1h 50mn\nBit rate mode                    : Constant\nBit rate                         : 112 Kbps\nChannel(s)                       : 2 channels\nSampling rate                    : 44.1 KHz\nResolution                       : 16 bits\nStream size                      : 88.5 MiB (13%)\nWriting library                  : LAME3.97 \nEncoding settings                : CBR\n\n\nTrackers:  &lt;a href=&quot;\nhttp://www.torrent-downloads.to:5869/announce&quot; rel=&quot;nofollow&quot; target=&quot;_NEW&quot;&gt;\nhttp://www.torrent-downloads.to:5869/announce&lt;/a&gt;\nhttp://open.tracker.thepiratebay.se:80/announce\nhttp://tpb.tracker.thepiratebay.se:80/announce\nhttp://vip.tracker.thepiratebay.se/announce\n\nInfo Hash: B29F67BEA38CD98D35001D96F5494BD7F483C71A\n\n\nEnjoy, and please seed.","torrent":{"xt":"urn:btih:b29f67bea38cd98d35001d96f5494bd7f483c71a","amp;dn":"Mr.+Destiny+%281990%29+-+DVDRip+-+MP3+-+ENG","amp;tr":["udp%3A%2F%2Ftracker.openbittorrent.com%3A80","udp%3A%2F%2Fopen.demonii.com%3A1337","udp%3A%2F%2Ftracker.coppersurfer.tk%3A6969","udp%3A%2F%2Fexodus.desync.com%3A6969"],"infoHash":"b29f67bea38cd98d35001d96f5494bd7f483c71a","infoHashBuffer":{"type":"Buffer","data":[178,159,103,190,163,140,217,141,53,0,29,150,245,73,75,215,244,131,199,26]},"announce":[],"urlList":[]}}